# xmcd CD database file generated by LOLA_Freedb v0.9beta0
# 
# Track frame offsets:
#      150
#      12788
#      25354
#      43762
#      56577
#      71884
#      81538
#      94182
#      104760
#      119368
#      135040
#      148176
#      162098
#      174760
# 
# Disc length: 2479 seconds
# 
# Revision: 0 
# Processed by: cddbd v1.5.2PL0 Copyright (c) Steve Scherf et al.
# Submitted via: LOLA_Freedb v0.9beta0
# 
DISCID=bf09ad0e
DTITLE=Tex Robinson - Feelin' Alright
DYEAR=1998
DGENRE=
TTITLE0=Tex Robinson - My Broken World
TTITLE1=Tex Robinson - One Woman Man
TTITLE2=Tex Robinson - When My Blue Moon Turns Gold Again
TTITLE3=Tex Robinson - Hey Good Lookin'
TTITLE4=Tex Robinson - When Midnight Comes
TTITLE5=Tex Robinson - Feeln' Alright Tonight
TTITLE6=Tex Robinson - You're My Best Friend
TTITLE7=Tex Robinson - Sleep Tight Tonight
TTITLE8=Tex Robinson - Before The Next Teardrops Falls
TTITLE9=Tex Robinson - San Antonio Rose
TTITLE10=Tex Robinson - Honky Tonk
TTITLE11=Tex Robinson - Sing Me Back Home
TTITLE12=Tex Robinson - Wann's Abend wird
TTITLE13=Tex Robinson - Es gibt was Schlimmeres
EXTD=
EXTT0=
EXTT1=
EXTT2=
EXTT3=
EXTT4=
EXTT5=
EXTT6=
EXTT7=
EXTT8=
EXTT9=
EXTT10=
EXTT11=
EXTT12=
EXTT13=
PLAYORDER=
